<svg id="visual" viewBox="0 0 900 600" width="900" height="600" xmlns="http://www.w3.org/2000/svg" xmlns:xlink="http://www.w3.org/1999/xlink" version="1.1"><path d="M0 388L21.5 402.5C43 417 86 446 128.8 464.2C171.7 482.3 214.3 489.7 257.2 479.5C300 469.3 343 441.7 385.8 438.8C428.7 436 471.3 458 514.2 476C557 494 600 508 642.8 507.8C685.7 507.7 728.3 493.3 771.2 477C814 460.7 857 442.3 878.5 433.2L900 424L900 601L878.5 601C857 601 814 601 771.2 601C728.3 601 685.7 601 642.8 601C600 601 557 601 514.2 601C471.3 601 428.7 601 385.8 601C343 601 300 601 257.2 601C214.3 601 171.7 601 128.8 601C86 601 43 601 21.5 601L0 601Z" fill="#c1121f" stroke-linecap="round" stroke-linejoin="miter"></path></svg>